<?xml version="1.0" encoding="utf-8"?>
<!-- Generator: Adobe Illustrator 27.7.0, SVG Export Plug-In . SVG Version: 6.00 Build 0)  -->
<svg version="1.1" id="Layer_1" xmlns="http://www.w3.org/2000/svg" xmlns:xlink="http://www.w3.org/1999/xlink" x="0px"
     y="0px"
     viewBox="0 0 9.32 8.43" style="enable-background:new 0 0 9.32 8.43;" xml:space="preserve">
<g>
	<g>
		<g>
			<path d="M8.26,1.79l0,0.39C8.2,2.28,8.13,2.33,8.04,2.33l-0.34,0c0,0.06,0,0.12,0,0.18l0.38,0c0.01,0,0.02,0,0.03,0
				c0.12-0.03,0.21-0.1,0.27-0.19c0.04-0.06,0.06-0.13,0.06-0.2l0-0.37L8.26,1.79z"/>
            <path d="M8.04,2.53C8.04,2.53,8.03,2.53,8.04,2.53l-0.36,0l0-0.02c0-0.06,0-0.11,0-0.18l0-0.02l0.36,0c0,0,0,0,0,0
				c0.09,0,0.15-0.05,0.21-0.14l0-0.4l0.21-0.05l0,0.39c0,0.07-0.02,0.14-0.06,0.21C8.36,2.39,8.31,2.44,8.24,2.47
				C8.18,2.51,8.11,2.53,8.04,2.53z M7.71,2.49l0.32,0c0,0,0,0,0,0c0.07,0,0.13-0.02,0.19-0.05c0.06-0.03,0.11-0.08,0.14-0.14
				C8.4,2.25,8.42,2.18,8.42,2.12l0-0.35L8.28,1.8l0,0.38C8.22,2.29,8.14,2.35,8.04,2.35c0,0,0,0,0,0l-0.32,0
				C7.71,2.4,7.72,2.44,7.71,2.49z"/>
		</g>
	</g>
    <path d="M5.63,2.83C5.35,2.67,5.2,2.51,5.18,2.32C5.16,2.15,5.25,1.97,5.45,1.8l0,0c0.54-0.44,0.36-0.69,0.3-0.77l0.17-0.12
		c0.16,0.22,0.23,0.59-0.34,1.05C5.44,2.08,5.37,2.2,5.38,2.3c0.01,0.11,0.13,0.23,0.35,0.35L5.63,2.83z"/>
    <path d="M6.94,2.12c-0.27,0-0.46-0.07-0.56-0.2C6.28,1.78,6.27,1.59,6.35,1.33l0,0C6.59,0.68,6.3,0.55,6.21,0.51l0.08-0.19
		c0.25,0.11,0.5,0.39,0.25,1.07c-0.06,0.19-0.06,0.32,0,0.4c0.07,0.09,0.24,0.13,0.48,0.12l0.01,0.2C7,2.12,6.97,2.12,6.94,2.12z"/>
    <path d="M6.95,2.13c-0.1,0-0.21-0.05-0.29-0.16C6.5,1.58,6.98,1.31,7.24,1.65C7.31,1.84,7.24,2.01,7.1,2.09
		C7.05,2.12,7,2.13,6.95,2.13z M6.95,1.7c-0.05,0-0.09,0.03-0.11,0.08C6.82,1.84,6.86,1.9,6.92,1.92c0.03,0.01,0.06,0,0.09-0.01
		C7.03,1.9,7.05,1.87,7.06,1.84l0,0C7.07,1.78,7.04,1.72,6.98,1.7C6.97,1.7,6.96,1.7,6.95,1.7z"/>
    <path d="M7.38,2.84c-0.14,0-0.29-0.07-0.42-0.21l0.15-0.14C7.16,2.54,7.32,2.7,7.48,2.61C7.6,2.55,7.68,2.42,7.75,2.3l0.18,0.1
		C7.84,2.55,7.74,2.7,7.58,2.79C7.51,2.83,7.45,2.84,7.38,2.84z"/>
    <path d="M7.71,2.5c-0.04,0-0.07-0.01-0.11-0.02C7.52,2.45,7.46,2.39,7.42,2.32C7.38,2.24,7.38,2.16,7.41,2.08
		C7.44,2,7.5,1.93,7.57,1.9c0.08-0.04,0.16-0.04,0.24-0.01c0.08,0.03,0.14,0.09,0.18,0.16c0.04,0.08,0.04,0.16,0.01,0.24
		C7.96,2.42,7.84,2.5,7.71,2.5z M7.71,2.07c-0.02,0-0.03,0-0.05,0.01C7.63,2.09,7.61,2.12,7.6,2.14c-0.01,0.03-0.01,0.06,0,0.09
		c0.01,0.03,0.04,0.05,0.06,0.06c0.03,0.01,0.06,0.01,0.09,0C7.78,2.27,7.8,2.25,7.81,2.22c0.01-0.03,0.01-0.06,0-0.09
		C7.8,2.11,7.77,2.09,7.75,2.08h0C7.73,2.07,7.72,2.07,7.71,2.07z"/>
    <rect x="7.84" y="1.37" width="0.54" height="0.17"/>
    <rect x="5.27" y="1.01" transform="matrix(0.7071 -0.7071 0.7071 0.7071 0.7837 4.1432)" width="0.24" height="0.24"/>
</g>
</svg>
